<svg width="24"
  xmlns="http://www.w3.org/2000/svg" height="24" fill="none" style="-webkit-print-color-adjust: exact; padding-top: 1px;">
  <g class="ionicon" style="fill: rgb(0, 0, 0);">
    <path fill="none" stroke="currentColor" stroke-linecap="round" stroke-linejoin="round" d="M13.534 4C11.167 4 10 6.364 10 6.364S8.833 4 6.466 4C4.543 4 3.02 5.63 3 7.575c-.04 4.038 3.162 6.91 6.672 9.323a.578.578 0 0 0 .656 0c3.51-2.413 6.712-5.285 6.672-9.323C16.98 5.63 15.457 4 13.534 4Z" style="fill: none;"></path>
    <path stroke="currentColor" stroke-linecap="round" stroke-linejoin="round" d="M13.534 4C11.167 4 10 6.364 10 6.364S8.833 4 6.466 4C4.543 4 3.02 5.63 3 7.575c-.04 4.038 3.162 6.91 6.672 9.323a.578.578 0 0 0 .656 0c3.51-2.413 6.712-5.285 6.672-9.323C16.98 5.63 15.457 4 13.534 4Z" class="stroke-shape" style="fill: none; stroke-width: 2; stroke: rgb(0, 0, 0); stroke-opacity: 1;"></path>
  </g>
</svg>