<?xml version="1.0" encoding="UTF-8"?>
<!DOCTYPE svg PUBLIC "-//W3C//DTD SVG 1.1//EN" "http://www.w3.org/Graphics/SVG/1.1/DTD/svg11.dtd">
<svg xmlns="http://www.w3.org/2000/svg" version="1.1" width="156px" height="156px" style="shape-rendering:geometricPrecision; text-rendering:geometricPrecision; image-rendering:optimizeQuality; fill-rule:evenodd; clip-rule:evenodd" xmlns:xlink="http://www.w3.org/1999/xlink">
<g><path style="opacity:1" fill="#d5d2d5" d="M -0.5,-0.5 C 51.5,-0.5 103.5,-0.5 155.5,-0.5C 155.5,51.5 155.5,103.5 155.5,155.5C 103.5,155.5 51.5,155.5 -0.5,155.5C -0.5,103.5 -0.5,51.5 -0.5,-0.5 Z"/></g>
<g><path style="opacity:1" fill="#eeeaee" d="M 0.5,0.5 C 51.8333,0.5 103.167,0.5 154.5,0.5C 154.5,51.8333 154.5,103.167 154.5,154.5C 103.167,154.5 51.8333,154.5 0.5,154.5C 0.5,103.167 0.5,51.8333 0.5,0.5 Z"/></g>
<g><path style="opacity:1" fill="#9d9b9d" d="M 99.5,32.5 C 102.119,32.2317 104.619,32.565 107,33.5C 107.667,56.8333 107.667,80.1667 107,103.5C 104.907,110.641 100.073,113.975 92.5,113.5C 85.8785,112.879 82.2118,109.212 81.5,102.5C 82.1393,99.6773 83.4727,97.1773 85.5,95C 90.8854,92.7797 96.3854,90.9464 102,89.5C 102.5,77.8381 102.667,66.1714 102.5,54.5C 89.3257,56.0348 76.3257,58.5348 63.5,62C 62.6743,78.426 62.1743,94.926 62,111.5C 61.6872,115.965 59.5206,119.132 55.5,121C 41.2322,125.712 35.3989,120.879 38,106.5C 39.1667,105.333 40.3333,104.167 41.5,103C 46.9773,101.845 52.1439,100.012 57,97.5C 57.3333,79.1667 57.6667,60.8333 58,42.5C 58.5,42 59,41.5 59.5,41C 73.0311,38.4621 86.3644,35.6287 99.5,32.5 Z"/></g>
</svg>
