<svg width="1024" height="1024" viewBox="0 0 1024 1024" fill="none" xmlns="http://www.w3.org/2000/svg">
<g clip-path="url(#clip0_72_14)">
<rect width="1024" height="1024" rx="80" fill="#2C2931"/>
<path d="M272.746 444.819C297.872 405.131 355.769 405.13 380.895 444.819L579.998 759.324C595.19 783.32 629.852 784.283 646.352 761.167L719.512 658.669C745.035 622.911 798.173 622.911 823.696 658.669L1018.77 931.975C1049.01 974.336 1018.73 1033.16 966.681 1033.16H669.01C664.298 1033.16 659.653 1034.11 655.076 1035.23C650.166 1036.43 644.981 1037.07 639.568 1037.07H14.0727C-36.3614 1037.07 -66.9792 981.45 -40.0025 938.837L272.746 444.819Z" fill="#5D5867"/>
<circle cx="779.889" cy="247.102" r="152" fill="#5D5867"/>
</g>
<defs>
<clipPath id="clip0_72_14">
<rect width="1024" height="1024" rx="80" fill="white"/>
</clipPath>
</defs>
</svg>
